<svg xmlns="http://www.w3.org/2000/svg" fill="none" viewBox="0 0 24 24" height="48" width="48"><path fill="#000000" fill-rule="evenodd" d="M1 12C1 5.92487 5.92487 1 12 1C18.0751 1 23 5.92487 23 12C23 18.0751 18.0751 23 12 23C10.0639 23 8.24333 22.4994 6.66211 21.6202L1.40005 22.5999L2.37976 17.3379C1.50061 15.7567 1 13.9361 1 12ZM7.14654 6.64671C7.80128 5.99197 8.67402 5.93436 9.14493 5.95633C9.58016 5.97663 9.92056 6.22871 10.1288 6.52055L11.0809 7.85478C11.5067 8.45144 11.4389 9.26844 10.9206 9.78675L10.2468 10.4605C10.4695 11.0044 10.9178 11.8795 11.5193 12.481C12.1208 13.0825 12.9959 13.5308 13.5397 13.7535L14.2135 13.0797C14.7318 12.5614 15.5488 12.4936 16.1454 12.9194L17.4797 13.8715C17.7715 14.0798 18.0236 14.4202 18.0439 14.8554C18.0658 15.3263 18.0082 16.199 17.3535 16.8538C16.2874 17.9199 14.6127 17.9311 13.0901 17.513C11.5396 17.0872 9.95925 16.1726 8.8934 15.1067C7.82756 14.0409 6.913 12.4605 6.48726 10.91C6.06919 9.38749 6.08042 7.71283 7.14654 6.64671Z" clip-rule="evenodd"></path></svg>