<?xml version="1.0" ?><!DOCTYPE svg  PUBLIC '-//W3C//DTD SVG 1.1//EN'  'http://www.w3.org/Graphics/SVG/1.1/DTD/svg11.dtd'><svg enable-background="new 0 0 512 512" height="512px" id="Layer_1" version="1.1" viewBox="0 0 512 512" width="512px" xml:space="preserve" xmlns="http://www.w3.org/2000/svg" xmlns:xlink="http://www.w3.org/1999/xlink"><g><path d="M397.553,112.096c-1.905,28.794-7.243,56.888-17.417,83.952c-8.935,23.769-20.688,46.036-36.63,65.892   c-12.612,15.708-27.625,28.82-45.118,38.842c-5.677,3.252-8.447,7.176-6.854,13.584c2.327,9.357-1.893,16.541-7.241,23.561   c-16.982,22.294-37.187,41.072-60.635,56.417c-5.43,3.554-10.6,7.481-17.126,8.897c-3.747,0.814-4.642,0.27-4.453-3.512   c0.3-5.989,2.254-11.682,3.522-17.493c2.818-12.908,5.819-25.776,8.641-38.682c0.425-1.943,1.37-4.385-0.509-5.859   c-1.737-1.362-3.807,0.011-5.624,0.727c-1.766,0.696-3.498,1.493-5.202,2.332c-3.739,1.842-7.109,1.232-10.441-1.138   c-5.475-3.895-9.898-8.905-14.591-13.61c-4.267-4.278-8.672-8.44-12.425-13.227c-2.875-3.667-3.394-7.402-1.289-11.563   c1.014-2.004,1.992-4.041,2.778-6.142c1.531-4.096,0.316-5.664-3.98-4.935c-4.083,0.693-8.111,1.71-12.158,2.608   c-14.075,3.124-28.149,6.255-42.221,9.394c-1.787,0.399-3.566,0.526-5.391,0.291c-1.791-0.23-2.284-1.14-1.954-2.862   c0.875-4.56,2.565-8.81,5.127-12.634c11.704-17.472,24.008-34.47,39.582-48.81c8.842-8.141,17.776-16.172,27.996-22.599   c3.932-2.473,8.198-3.492,12.873-2.816c2.732,0.395,5.502,0.563,8.261,0.728c2.73,0.164,4.77-0.968,6.253-3.344   c3.614-5.788,7.24-11.564,11.226-17.119c8.165-11.379,17.642-21.513,28.463-30.363c24.561-20.089,52.497-33.775,82.635-43.221   c23.563-7.385,47.802-10.903,72.351-12.674c1.758-0.127,2.154,0.412,1.839,2.018C397.631,109.835,397.642,110.976,397.553,112.096z    M317.734,211.051c13.175,0.237,24.392-10.73,24.537-23.988c0.149-13.625-10.46-24.714-23.883-24.965   c-13.782-0.257-24.856,10.463-25.084,24.285C293.08,199.925,303.851,210.802,317.734,211.051z"/><path d="M179.964,343.472c3.287,2.744,3.96,6.166,4.119,9.619c0.534,11.573-6.487,26.312-23.1,28.024   c-11.096,1.143-22.2,2.101-33.339,2.592c-4.576,0.202-6.686-2.089-6.591-6.648c0.029-1.383,0.075-2.767,0.175-4.147   c0.734-10.165,1.187-20.358,2.598-30.461c2.08-14.886,18.148-25.209,32.427-20.917c0.577,0.174,1.162,0.349,1.705,0.605   c1.096,0.515,2.641,1.051,2.693,2.191c0.058,1.285-1.697,0.989-2.627,1.409c-7.213,3.261-11.552,9.181-14.671,16.092   c-2.933,6.497-3.711,13.435-3.463,20.522c0.059,1.693,0.618,2.366,2.408,2.445c11.993,0.524,22.757-2.37,31.649-10.874   C176.895,351.104,178.878,347.765,179.964,343.472z"/></g></svg>