<svg width="29" height="29" viewBox="0 0 29 29" fill="none" xmlns="http://www.w3.org/2000/svg">
<path d="M26.0428 12.8496L20.0695 17.1779L22.4028 24.1779C22.4787 24.4134 22.4777 24.6668 22.4001 24.9017C22.3226 25.1365 22.1723 25.3407 21.9711 25.4846C21.7724 25.6279 21.5337 25.705 21.2886 25.705C21.0436 25.705 20.8049 25.6279 20.6061 25.4846L14.5861 21.1679L8.61281 25.5079C8.41411 25.6513 8.17532 25.7284 7.93032 25.7284C7.68531 25.7284 7.44652 25.6513 7.24781 25.5079C7.04664 25.364 6.89641 25.1599 6.81881 24.925C6.74122 24.6901 6.74029 24.4367 6.81615 24.2013L9.14948 17.2013L3.12948 12.8496C2.92949 12.7048 2.78059 12.5003 2.70421 12.2655C2.62782 12.0307 2.6279 11.7778 2.70442 11.543C2.78093 11.3083 2.92995 11.1039 3.13003 10.9592C3.3301 10.8145 3.57092 10.737 3.81781 10.7379H11.1911L13.5245 3.73792C13.6012 3.50451 13.7497 3.30127 13.9487 3.1572C14.1477 3.01312 14.3871 2.93555 14.6328 2.93555C14.8785 2.93555 15.1179 3.01312 15.317 3.1572C15.516 3.30127 15.6644 3.50451 15.7411 3.73792L18.0745 10.7379H25.4478C25.6947 10.737 25.9355 10.8145 26.1356 10.9592C26.3357 11.1039 26.4847 11.3083 26.5612 11.543C26.6377 11.7778 26.6378 12.0307 26.5614 12.2655C26.485 12.5003 26.3361 12.7048 26.1361 12.8496H26.0428Z" fill="url(#paint0_linear_461_1226)"/>
<defs>
<linearGradient id="paint0_linear_461_1226" x1="14.6328" y1="2.93555" x2="14.6328" y2="25.7284" gradientUnits="userSpaceOnUse">
<stop stop-color="#B6F829"/>
<stop offset="0.25" stop-color="#87E816"/>
<stop offset="0.5" stop-color="#85E716"/>
<stop offset="0.75" stop-color="#84E715"/>
<stop offset="1" stop-color="#67DD0A"/>
</linearGradient>
</defs>
</svg>
