<svg width="26" height="24" viewBox="0 0 26 24" fill="none" xmlns="http://www.w3.org/2000/svg">
<path d="M2.0861 1.87892C1.36441 2.6154 0.919434 3.62406 0.919434 4.73665V17.57C0.919434 19.8252 2.7476 21.6533 5.00277 21.6533H13.1852C13.2455 21.359 13.3534 21.0693 13.5118 20.7948L14.3634 19.32H5.00277C4.03627 19.32 3.25277 18.5365 3.25277 17.57V6.48665H19.5861V7.94999C20.3274 7.68225 21.1259 7.58157 21.9194 7.66422V4.73665C21.9194 3.62406 21.4745 2.6154 20.7528 1.87892V1.81999H20.6938C19.9573 1.0983 18.9487 0.65332 17.8361 0.65332H5.00277C3.89018 0.65332 2.88151 1.0983 2.14503 1.81999H2.0861V1.87892ZM21.0004 8.81999C21.2492 8.797 21.5007 8.79671 21.752 8.81999C21.8746 8.83135 21.9972 8.84834 22.1194 8.87105L20.1939 12.2061C19.818 12.8571 20.0411 13.6895 20.6921 14.0654C21.3431 14.4413 22.1755 14.2183 22.5514 13.5673L24.4769 10.2322C25.57 11.5107 25.7979 13.3887 24.9089 14.9283C24.0878 16.3506 22.5402 17.092 21.0055 16.9545L17.4692 23.0795C16.9994 23.8932 15.9587 24.172 15.1449 23.7022C14.4206 23.284 14.1201 22.4135 14.3943 21.6533C14.428 21.5595 14.4706 21.4675 14.5222 21.3781L18.0519 15.2645C17.1488 14.0017 17.0095 12.2771 17.8363 10.845C18.5252 9.65177 19.7254 8.9378 21.0004 8.81999ZM10.6062 9.10372C10.9327 9.45995 10.9085 10.0135 10.5524 10.34L7.75601 12.9033L10.5524 15.4666C10.9085 15.7932 10.9327 16.3467 10.6062 16.7029C10.2796 17.0591 9.72608 17.0833 9.36984 16.7567L5.86984 13.5484C5.68903 13.3826 5.5861 13.1486 5.5861 12.9033C5.5861 12.6581 5.68903 12.4241 5.86984 12.2583L9.36984 9.04997C9.72608 8.72343 10.2796 8.74749 10.6062 9.10372ZM14.0524 16.7567L16.4088 14.5966C16.0379 13.5185 16.0175 12.3241 16.3994 11.2014L14.0524 9.04997C13.6962 8.72343 13.1426 8.74749 12.816 9.10372C12.4895 9.45995 12.5136 10.0135 12.8698 10.34L15.6662 12.9033L12.8698 15.4666C12.5136 15.7932 12.4895 16.3467 12.816 16.7029C13.1426 17.0591 13.6962 17.0833 14.0524 16.7567Z" fill="url(#paint0_linear_461_1229)"/>
<defs>
<linearGradient id="paint0_linear_461_1229" x1="13.188" y1="0.65332" x2="13.188" y2="23.9304" gradientUnits="userSpaceOnUse">
<stop stop-color="#B6F829"/>
<stop offset="0.25" stop-color="#87E816"/>
<stop offset="0.5" stop-color="#85E716"/>
<stop offset="0.75" stop-color="#84E715"/>
<stop offset="1" stop-color="#67DD0A"/>
</linearGradient>
</defs>
</svg>
