<svg width="102" height="29" viewBox="0 0 102 29" fill="none" xmlns="http://www.w3.org/2000/svg">
<path d="M24.9107 3.17752V3.88728C24.3903 4.07655 23.8343 4.49057 23.2428 5.12935C22.675 5.76813 22.1427 6.7618 21.6459 8.11034L14.1579 28.3739C13.9686 28.3503 13.7675 28.3385 13.5546 28.3385C13.3417 28.3385 13.1288 28.3385 12.9158 28.3385C12.7266 28.3385 12.5255 28.3385 12.3125 28.3385C12.0996 28.3385 11.8985 28.3503 11.7092 28.3739L2.65981 6.1585C2.32859 5.30679 1.96188 4.72716 1.55969 4.41959C1.15749 4.08837 0.778952 3.91093 0.424072 3.88728V3.17752C1.13383 3.20118 1.96188 3.22483 2.90823 3.24849C3.87823 3.27215 4.84823 3.28398 5.81824 3.28398C6.90653 3.28398 7.92385 3.27215 8.8702 3.24849C9.8402 3.22483 10.6209 3.20118 11.2124 3.17752V3.88728C10.4553 3.91093 9.86386 4.00557 9.43801 4.17118C9.01215 4.31313 8.77557 4.59703 8.72825 5.02289C8.68093 5.42509 8.82288 6.04021 9.1541 6.86826L15.3247 22.9543L14.8677 24.1864L19.765 10.9849C20.4038 9.21046 20.735 7.81461 20.7587 6.79729C20.7823 5.77996 20.5339 5.04655 20.0134 4.59703C19.4929 4.14752 18.7477 3.91093 17.7777 3.88728V3.17752C18.5821 3.20118 19.3391 3.22483 20.0489 3.24849C20.7587 3.27215 21.4802 3.28398 22.2137 3.28398C22.7342 3.28398 23.2192 3.27215 23.6687 3.24849C24.1418 3.22483 24.5559 3.20118 24.9107 3.17752Z" fill="white"/>
<path d="M28.9802 0.799825C29.9739 0.799825 30.7546 1.04824 31.3224 1.54507C31.9139 2.01824 32.2096 2.68069 32.2096 3.5324C32.2096 4.38411 31.9139 5.05838 31.3224 5.55521C30.7546 6.02838 29.9739 6.26497 28.9802 6.26497C27.9865 6.26497 27.194 6.02838 26.6025 5.55521C26.0347 5.05838 25.7508 4.38411 25.7508 3.5324C25.7508 2.68069 26.0347 2.01824 26.6025 1.54507C27.194 1.04824 27.9865 0.799825 28.9802 0.799825ZM31.7483 9.56534V25.0026C31.7483 25.9963 31.9139 26.6705 32.2451 27.0254C32.6 27.3803 33.1914 27.5577 34.0195 27.5577V28.303C33.5936 28.2793 32.9312 28.2557 32.0322 28.232C31.1331 28.1847 30.2223 28.161 29.2996 28.161C28.3769 28.161 27.4424 28.1847 26.4961 28.232C25.5497 28.2557 24.84 28.2793 24.3668 28.303V27.5577C25.1948 27.5577 25.7745 27.3803 26.1057 27.0254C26.4606 26.6705 26.638 25.9963 26.638 25.0026V13.8239C26.638 12.7593 26.4724 11.9785 26.1412 11.4817C25.8336 10.9612 25.2421 10.701 24.3668 10.701V9.95571C25.1239 10.0267 25.8573 10.0622 26.567 10.0622C27.5607 10.0622 28.4834 10.0267 29.3351 9.95571C30.2105 9.86108 31.0149 9.73095 31.7483 9.56534Z" fill="white"/>
<path d="M44.7876 9.45888C45.7103 9.45888 46.5502 9.56534 47.3072 9.77827C48.088 9.96754 48.7267 10.216 49.2236 10.5235C49.8387 10.9021 50.3119 11.3752 50.6431 11.943C50.998 12.4872 51.1754 13.126 51.1754 13.8594C51.1754 14.6874 50.9152 15.3735 50.3947 15.9177C49.8742 16.4382 49.1999 16.6984 48.3719 16.6984C47.5438 16.6984 46.8814 16.4618 46.3845 15.9887C45.8877 15.5155 45.6393 14.8767 45.6393 14.0723C45.6393 13.3152 45.8759 12.6883 46.3491 12.1915C46.8222 11.671 47.3664 11.3279 47.9815 11.1623C47.7922 10.9257 47.5083 10.7246 47.1298 10.559C46.7513 10.3934 46.3254 10.3106 45.8522 10.3106C45.1188 10.3106 44.4682 10.5235 43.9004 10.9494C43.3562 11.3752 42.8949 11.9667 42.5164 12.7238C42.1378 13.4808 41.8421 14.368 41.6292 15.3854C41.4399 16.4027 41.3453 17.5146 41.3453 18.7212C41.3453 20.5429 41.57 21.9743 42.0195 23.0153C42.4927 24.0563 43.0842 24.7897 43.7939 25.2155C44.5273 25.6414 45.2844 25.8543 46.0652 25.8543C46.5147 25.8543 46.9997 25.7833 47.5202 25.6414C48.0643 25.4994 48.6085 25.2155 49.1526 24.7897C49.7204 24.3638 50.2409 23.7605 50.7141 22.9798L51.3174 23.1927C51.0571 24.0681 50.6313 24.9434 50.0398 25.8188C49.4483 26.6942 48.6794 27.4158 47.7331 27.9836C46.7867 28.5277 45.6275 28.7998 44.2553 28.7998C42.7175 28.7998 41.3216 28.4686 40.0677 27.8061C38.8374 27.12 37.8438 26.0791 37.0867 24.6832C36.3533 23.2637 35.9866 21.442 35.9866 19.2181C35.9866 17.0888 36.3651 15.3026 37.1222 13.8594C37.9029 12.3926 38.9557 11.2924 40.2806 10.559C41.6055 9.82559 43.1078 9.45888 44.7876 9.45888Z" fill="white"/>
<path d="M60.3701 4.13569V9.95571H64.5577V10.6655H60.3701V25.0026C60.3701 25.7124 60.5002 26.221 60.7605 26.5286C61.0207 26.8125 61.4111 26.9544 61.9316 26.9544C62.3574 26.9544 62.7833 26.8006 63.2092 26.4931C63.635 26.1619 64.0135 25.6059 64.3448 24.8252L64.9481 25.1445C64.5695 26.2092 63.9899 27.0846 63.2092 27.7707C62.4521 28.4568 61.4111 28.7998 60.0862 28.7998C59.3055 28.7998 58.6194 28.6933 58.0279 28.4804C57.4364 28.2911 56.9396 27.9954 56.5374 27.5932C56.0169 27.0727 55.6739 26.4339 55.5083 25.6769C55.3427 24.8961 55.2599 23.8906 55.2599 22.6604V10.6655H52.2789V9.95571H55.2599V5.2713C56.2535 5.2713 57.1644 5.1885 57.9924 5.02289C58.8441 4.83362 59.6367 4.53789 60.3701 4.13569Z" fill="white"/>
<path d="M74.6596 9.45888C76.3866 9.45888 77.9008 9.77827 79.202 10.4171C80.5032 11.0558 81.5206 12.085 82.254 13.5045C82.9874 14.924 83.3541 16.8049 83.3541 19.1471C83.3541 21.4893 82.9874 23.3701 82.254 24.7897C81.5206 26.1855 80.5032 27.2028 79.202 27.8416C77.9008 28.4804 76.3866 28.7998 74.6596 28.7998C72.9798 28.7998 71.4775 28.4804 70.1526 27.8416C68.8514 27.2028 67.8222 26.1855 67.0651 24.7897C66.3317 23.3701 65.965 21.4893 65.965 19.1471C65.965 16.8049 66.3317 14.924 67.0651 13.5045C67.8222 12.085 68.8514 11.0558 70.1526 10.4171C71.4775 9.77827 72.9798 9.45888 74.6596 9.45888ZM74.6596 10.1686C73.7132 10.1686 72.9206 10.8784 72.2819 12.2979C71.6431 13.6938 71.3237 15.9768 71.3237 19.1471C71.3237 22.3173 71.6431 24.6004 72.2819 25.9963C72.9206 27.3921 73.7132 28.09 74.6596 28.09C75.6296 28.09 76.4221 27.3921 77.0372 25.9963C77.676 24.6004 77.9954 22.3173 77.9954 19.1471C77.9954 15.9768 77.676 13.6938 77.0372 12.2979C76.4221 10.8784 75.6296 10.1686 74.6596 10.1686Z" fill="white"/>
<path d="M97.7774 9.45888C98.5345 9.45888 99.1496 9.62449 99.6228 9.95571C100.096 10.2633 100.439 10.6655 100.652 11.1623C100.889 11.6591 101.007 12.1796 101.007 12.7238C101.007 13.5991 100.747 14.3207 100.226 14.8885C99.7293 15.4327 99.0668 15.7048 98.2388 15.7048C97.4107 15.7048 96.7601 15.5037 96.2869 15.1015C95.8374 14.6756 95.6127 14.1196 95.6127 13.4335C95.6127 12.7711 95.7546 12.2269 96.0385 11.8011C96.3461 11.3516 96.7246 10.973 97.1741 10.6655C96.8429 10.5708 96.5117 10.5827 96.1805 10.701C95.731 10.7719 95.3051 10.9612 94.9029 11.2688C94.5007 11.5527 94.1577 11.9194 93.8738 12.3689C93.5899 12.7947 93.3651 13.2679 93.1995 13.7884C93.0339 14.2852 92.9511 14.7702 92.9511 15.2434V24.6477C92.9511 25.7833 93.2232 26.5522 93.7673 26.9544C94.3351 27.3566 95.175 27.5577 96.2869 27.5577V28.303C95.7428 28.2793 94.9502 28.2557 93.9093 28.232C92.8683 28.1847 91.78 28.161 90.6444 28.161C89.698 28.161 88.7399 28.1847 87.7698 28.232C86.7998 28.2557 86.0664 28.2793 85.5696 28.303V27.5577C86.3976 27.5577 86.9773 27.3803 87.3085 27.0254C87.6634 26.6705 87.8408 25.9963 87.8408 25.0026V13.8239C87.8408 12.7593 87.6752 11.9785 87.344 11.4817C87.0364 10.9612 86.445 10.701 85.5696 10.701V9.95571C86.3267 10.0267 87.0601 10.0622 87.7698 10.0622C88.7635 10.0622 89.6862 10.0267 90.5379 9.95571C91.4133 9.86108 92.2177 9.73095 92.9511 9.56534V12.8657C93.235 12.2269 93.6135 11.6473 94.0867 11.1268C94.5599 10.6063 95.104 10.2041 95.7191 9.92022C96.3343 9.61266 97.0204 9.45888 97.7774 9.45888Z" fill="white"/>
<path d="M28.9802 0.799825C29.9739 0.799825 30.7546 1.04824 31.3224 1.54507C31.9139 2.01824 32.2096 2.68069 32.2096 3.5324C32.2096 4.38411 31.9139 5.05838 31.3224 5.55521C30.7546 6.02838 29.9739 6.26497 28.9802 6.26497C27.9865 6.26497 27.194 6.02838 26.6025 5.55521C26.0347 5.05838 25.7508 4.38411 25.7508 3.5324C25.7508 2.68069 26.0347 2.01824 26.6025 1.54507C27.194 1.04824 27.9865 0.799825 28.9802 0.799825Z" fill="url(#paint0_linear_412_495)"/>
<defs>
<linearGradient id="paint0_linear_412_495" x1="50.7155" y1="0.799805" x2="50.7155" y2="28.7998" gradientUnits="userSpaceOnUse">
<stop stop-color="#B6F829"/>
<stop offset="0.25" stop-color="#87E816"/>
<stop offset="0.5" stop-color="#85E716"/>
<stop offset="0.75" stop-color="#84E715"/>
<stop offset="1" stop-color="#67DD0A"/>
</linearGradient>
</defs>
</svg>
