<svg width="137" height="39" viewBox="0 0 137 39" fill="none" xmlns="http://www.w3.org/2000/svg">
<path d="M33.5438 4.01602V4.97602C32.8398 5.23202 32.0878 5.79202 31.2878 6.65601C30.5198 7.52002 29.7998 8.86402 29.1278 10.688L18.9998 38.096C18.7438 38.064 18.4718 38.048 18.1838 38.048C17.8958 38.048 17.6078 38.048 17.3198 38.048C17.0638 38.048 16.7918 38.048 16.5038 38.048C16.2158 38.048 15.9438 38.064 15.6878 38.096L3.44783 8.04802C2.99983 6.89602 2.50383 6.11202 1.95983 5.69602C1.41583 5.24802 0.903828 5.00802 0.423828 4.97602V4.01602C1.38383 4.04802 2.50383 4.08002 3.78383 4.11202C5.09583 4.14402 6.40783 4.16002 7.71983 4.16002C9.19183 4.16002 10.5678 4.14402 11.8478 4.11202C13.1598 4.08002 14.2158 4.04802 15.0158 4.01602V4.97602C13.9918 5.00802 13.1918 5.13602 12.6158 5.36002C12.0398 5.55202 11.7198 5.93602 11.6558 6.51202C11.5918 7.05602 11.7838 7.88801 12.2318 9.00802L20.578 30.7656L19.9598 32.432L26.5838 14.576C27.4478 12.176 27.8958 10.288 27.9278 8.91202C27.9598 7.53602 27.6238 6.54402 26.9198 5.93602C26.2158 5.32802 25.2078 5.00802 23.8958 4.97602V4.01602C24.9838 4.04802 26.0078 4.08002 26.9678 4.11202C27.9278 4.14402 28.9038 4.16002 29.8958 4.16002C30.5998 4.16002 31.2558 4.14402 31.8638 4.11202C32.5038 4.08002 33.0638 4.04802 33.5438 4.01602Z" fill="#141414"/>
<path d="M39.0481 0.800016C40.3921 0.800016 41.4481 1.13602 42.2161 1.80802C43.0161 2.44802 43.4161 3.34402 43.4161 4.49602C43.4161 5.64802 43.0161 6.56002 42.2161 7.23202C41.4481 7.87202 40.3921 8.19201 39.0481 8.19201C37.7041 8.19201 36.6321 7.87202 35.8321 7.23202C35.0641 6.56002 34.6801 5.64802 34.6801 4.49602C34.6801 3.34402 35.0641 2.44802 35.8321 1.80802C36.6321 1.13602 37.7041 0.800016 39.0481 0.800016ZM42.7921 12.656V33.536C42.7921 34.88 43.0161 35.792 43.4641 36.272C43.9441 36.752 44.7441 36.992 45.8641 36.992V38C45.2881 37.968 44.3921 37.936 43.1761 37.904C41.9601 37.84 40.7281 37.808 39.4801 37.808C38.2321 37.808 36.9681 37.84 35.6881 37.904C34.4081 37.936 33.4481 37.968 32.8081 38V36.992C33.9281 36.992 34.7121 36.752 35.1601 36.272C35.6401 35.792 35.8801 34.88 35.8801 33.536V18.416C35.8801 16.976 35.6561 15.92 35.2081 15.248C34.7921 14.544 33.9921 14.192 32.8081 14.192V13.184C33.8321 13.28 34.8241 13.328 35.7841 13.328C37.1281 13.328 38.3761 13.28 39.5281 13.184C40.7121 13.056 41.8001 12.88 42.7921 12.656Z" fill="#141414"/>
<path d="M60.4287 12.512C61.6767 12.512 62.8127 12.656 63.8367 12.944C64.8927 13.2 65.7567 13.536 66.4287 13.952C67.2607 14.464 67.9007 15.104 68.3487 15.872C68.8287 16.608 69.0687 17.472 69.0687 18.464C69.0687 19.584 68.7167 20.512 68.0127 21.248C67.3087 21.952 66.3967 22.304 65.2767 22.304C64.1567 22.304 63.2607 21.984 62.5887 21.344C61.9167 20.704 61.5807 19.84 61.5807 18.752C61.5807 17.728 61.9007 16.88 62.5407 16.208C63.1807 15.504 63.9167 15.04 64.7487 14.816C64.4927 14.496 64.1087 14.224 63.5967 14C63.0847 13.776 62.5087 13.664 61.8687 13.664C60.8767 13.664 59.9967 13.952 59.2287 14.528C58.4927 15.104 57.8687 15.904 57.3567 16.928C56.8447 17.952 56.4447 19.152 56.1567 20.528C55.9007 21.904 55.7727 23.408 55.7727 25.04C55.7727 27.504 56.0767 29.44 56.6847 30.848C57.3247 32.256 58.1247 33.248 59.0847 33.824C60.0767 34.4 61.1007 34.688 62.1567 34.688C62.7647 34.688 63.4207 34.592 64.1247 34.4C64.8607 34.208 65.5967 33.824 66.3327 33.248C67.1007 32.672 67.8047 31.856 68.4447 30.8L69.2607 31.088C68.9087 32.272 68.3327 33.456 67.5327 34.64C66.7327 35.824 65.6927 36.8 64.4127 37.568C63.1327 38.304 61.5647 38.672 59.7087 38.672C57.6287 38.672 55.7407 38.224 54.0447 37.328C52.3807 36.4 51.0367 34.992 50.0127 33.104C49.0207 31.184 48.5247 28.72 48.5247 25.712C48.5247 22.832 49.0367 20.416 50.0607 18.464C51.1167 16.48 52.5407 14.992 54.3327 14C56.1247 13.008 58.1567 12.512 60.4287 12.512Z" fill="#141414"/>
<path d="M81.5052 5.31202V13.184H87.1692V14.144H81.5052V33.536C81.5052 34.496 81.6812 35.184 82.0332 35.6C82.3852 35.984 82.9132 36.176 83.6172 36.176C84.1932 36.176 84.7692 35.968 85.3452 35.552C85.9212 35.104 86.4332 34.352 86.8812 33.296L87.6972 33.728C87.1852 35.168 86.4012 36.352 85.3452 37.28C84.3212 38.208 82.9132 38.672 81.1212 38.672C80.0652 38.672 79.1372 38.528 78.3372 38.24C77.5372 37.984 76.8652 37.584 76.3212 37.04C75.6172 36.336 75.1532 35.472 74.9292 34.448C74.7052 33.392 74.5932 32.032 74.5932 30.368V14.144H70.5612V13.184H74.5932V6.84802C75.9372 6.84802 77.1692 6.73602 78.2892 6.51202C79.4412 6.25602 80.5132 5.85602 81.5052 5.31202Z" fill="#141414"/>
<path d="M100.833 12.512C103.169 12.512 105.217 12.944 106.977 13.808C108.737 14.672 110.113 16.064 111.105 17.984C112.097 19.904 112.593 22.448 112.593 25.616C112.593 28.784 112.097 31.328 111.105 33.248C110.113 35.136 108.737 36.512 106.977 37.376C105.217 38.24 103.169 38.672 100.833 38.672C98.5607 38.672 96.5287 38.24 94.7367 37.376C92.9767 36.512 91.5847 35.136 90.5607 33.248C89.5687 31.328 89.0727 28.784 89.0727 25.616C89.0727 22.448 89.5687 19.904 90.5607 17.984C91.5847 16.064 92.9767 14.672 94.7367 13.808C96.5287 12.944 98.5607 12.512 100.833 12.512ZM100.833 13.472C99.5527 13.472 98.4807 14.432 97.6167 16.352C96.7527 18.24 96.3207 21.328 96.3207 25.616C96.3207 29.904 96.7527 32.992 97.6167 34.88C98.4807 36.768 99.5527 37.712 100.833 37.712C102.145 37.712 103.217 36.768 104.049 34.88C104.913 32.992 105.345 29.904 105.345 25.616C105.345 21.328 104.913 18.24 104.049 16.352C103.217 14.432 102.145 13.472 100.833 13.472Z" fill="#141414"/>
<path d="M132.101 12.512C133.125 12.512 133.957 12.736 134.597 13.184C135.237 13.6 135.701 14.144 135.989 14.816C136.309 15.488 136.469 16.192 136.469 16.928C136.469 18.112 136.117 19.088 135.413 19.856C134.741 20.592 133.845 20.96 132.725 20.96C131.605 20.96 130.725 20.688 130.085 20.144C129.477 19.568 129.173 18.816 129.173 17.888C129.173 16.992 129.365 16.256 129.749 15.68C130.165 15.072 130.677 14.56 131.285 14.144C130.837 14.016 130.389 14.032 129.941 14.192C129.333 14.288 128.757 14.544 128.213 14.96C127.669 15.344 127.205 15.84 126.821 16.448C126.437 17.024 126.133 17.664 125.909 18.368C125.685 19.04 125.573 19.696 125.573 20.336V33.056C125.573 34.592 125.941 35.632 126.677 36.176C127.445 36.72 128.581 36.992 130.085 36.992V38C129.349 37.968 128.277 37.936 126.869 37.904C125.461 37.84 123.989 37.808 122.453 37.808C121.173 37.808 119.877 37.84 118.565 37.904C117.253 37.936 116.261 37.968 115.589 38V36.992C116.709 36.992 117.493 36.752 117.941 36.272C118.421 35.792 118.661 34.88 118.661 33.536V18.416C118.661 16.976 118.437 15.92 117.989 15.248C117.573 14.544 116.773 14.192 115.589 14.192V13.184C116.613 13.28 117.605 13.328 118.565 13.328C119.909 13.328 121.157 13.28 122.309 13.184C123.493 13.056 124.581 12.88 125.573 12.656V17.12C125.957 16.256 126.469 15.472 127.109 14.768C127.749 14.064 128.485 13.52 129.317 13.136C130.149 12.72 131.077 12.512 132.101 12.512Z" fill="#141414"/>
<path d="M39.0481 0.800016C40.3921 0.800016 41.4481 1.13602 42.2161 1.80802C43.0161 2.44802 43.4161 3.34402 43.4161 4.49602C43.4161 5.64802 43.0161 6.56002 42.2161 7.23202C41.4481 7.87202 40.3921 8.19201 39.0481 8.19201C37.7041 8.19201 36.6321 7.87202 35.8321 7.23202C35.0641 6.56002 34.6801 5.64802 34.6801 4.49602C34.6801 3.34402 35.0641 2.44802 35.8321 1.80802C36.6321 1.13602 37.7041 0.800016 39.0481 0.800016Z" fill="url(#paint0_linear_308_274)"/>
<defs>
<linearGradient id="paint0_linear_308_274" x1="68.4466" y1="0.799988" x2="68.4466" y2="38.672" gradientUnits="userSpaceOnUse">
<stop stop-color="#B6F829"/>
<stop offset="1" stop-color="#67DD0A"/>
</linearGradient>
</defs>
</svg>
