<svg xmlns="http://www.w3.org/2000/svg" viewBox="0 0 24 24" height="48" width="48"><g><rect x="11.9" y="3.42" width="4.72" height="4.72" rx="0.52" fill="#000000"></rect><path d="M9.27,3.53H5.32a.75.75,0,0,0,0,1.5H9.27a.75.75,0,0,0,0-1.5Z" fill="#000000"></path><path d="M3.14,6.76V1.85a.33.33,0,0,1,.27-.35H18a.32.32,0,0,1,.27.35V9.72h.4a2.88,2.88,0,0,1,1.1.22V1.85A1.81,1.81,0,0,0,18,0H3.41A1.82,1.82,0,0,0,1.64,1.85V6.76Z" fill="#000000"></path><path d="M22.88,10.79a.75.75,0,1,0-.6,1.38.34.34,0,0,1,.2.42l-2.33,6.09v-6a1.48,1.48,0,0,0-1.48-1.48H7.42L6.35,9A1.49,1.49,0,0,0,5,8.22H1.49A1.48,1.48,0,0,0,0,9.7V22.52A1.48,1.48,0,0,0,1.49,24H18.67A1.62,1.62,0,0,0,20,23.16l3.84-10A1.85,1.85,0,0,0,22.88,10.79ZM8.33,19.62a.75.75,0,1,1,0,1.5,3,3,0,0,1-2.95-2.95v-1.1a3,3,0,0,1,3-3,.75.75,0,0,1,0,1.5,1.45,1.45,0,0,0-1.45,1.45v1.1A1.45,1.45,0,0,0,8.33,19.62Zm6.25-2.88A6.42,6.42,0,0,1,13,20.85a.76.76,0,0,1-.58.27.74.74,0,0,1-.57-.27,6.36,6.36,0,0,1-1.55-4.11V14.87a.75.75,0,0,1,1.5,0v1.87a4.72,4.72,0,0,0,.62,2.32,4.73,4.73,0,0,0,.63-2.32V14.87a.75.75,0,0,1,1.5,0Z" fill="#000000"></path></g></svg>