<svg width="33" height="33" viewBox="0 0 33 33" fill="none" xmlns="http://www.w3.org/2000/svg">
<circle cx="16.43" cy="16.0567" r="16" fill="white"/>
<path d="M22.1517 7.56648V8.09464C21.7644 8.23549 21.3507 8.54358 20.9105 9.01893C20.488 9.49428 20.0919 10.2337 19.7222 11.2372L14.15 26.3164C14.0092 26.2988 13.8595 26.29 13.7011 26.29C13.5426 26.29 13.3842 26.29 13.2257 26.29C13.0849 26.29 12.9352 26.29 12.7768 26.29C12.6183 26.29 12.4687 26.2988 12.3278 26.3164L5.59372 9.78477C5.34724 9.15097 5.07435 8.71964 4.77506 8.49077C4.47576 8.24429 4.19408 8.11225 3.92999 8.09464V7.56648C4.45816 7.58408 5.07435 7.60169 5.77857 7.61929C6.5004 7.6369 7.22223 7.6457 7.94406 7.6457C8.75391 7.6457 9.51095 7.6369 10.2152 7.61929C10.937 7.60169 11.518 7.58408 11.9581 7.56648V8.09464C11.3947 8.11225 10.9546 8.18267 10.6377 8.30591C10.3208 8.41154 10.1447 8.62281 10.1095 8.93971C10.0743 9.239 10.18 9.69675 10.4264 10.3129L15.0183 22.2834L14.6782 23.2002L18.3225 13.3763C18.7979 12.0559 19.0443 11.0172 19.062 10.2601C19.0796 9.50308 18.8947 8.95731 18.5074 8.62281C18.1201 8.2883 17.5655 8.11225 16.8437 8.09464V7.56648C17.4422 7.58408 18.0056 7.60169 18.5338 7.61929C19.062 7.6369 19.5989 7.6457 20.1447 7.6457C20.532 7.6457 20.8929 7.6369 21.2274 7.61929C21.5795 7.60169 21.8876 7.58408 22.1517 7.56648Z" fill="#141414"/>
<path d="M25.18 5.79712C25.9194 5.79712 26.5004 5.98198 26.923 6.35169C27.3631 6.7038 27.5832 7.19676 27.5832 7.83056C27.5832 8.46436 27.3631 8.96612 26.923 9.33583C26.5004 9.68794 25.9194 9.864 25.18 9.864C24.4406 9.864 23.8508 9.68794 23.4107 9.33583C22.9881 8.96612 22.7769 8.46436 22.7769 7.83056C22.7769 7.19676 22.9881 6.7038 23.4107 6.35169C23.8508 5.98198 24.4406 5.79712 25.18 5.79712ZM27.2399 12.32V23.8076C27.2399 24.547 27.3631 25.0488 27.6096 25.3129C27.8737 25.5769 28.3138 25.709 28.93 25.709V26.2636C28.6131 26.246 28.1201 26.2283 27.4511 26.2107C26.7821 26.1755 26.1043 26.1579 25.4177 26.1579C24.7311 26.1579 24.0357 26.1755 23.3314 26.2107C22.6272 26.2283 22.099 26.246 21.7469 26.2636V25.709C22.3631 25.709 22.7945 25.5769 23.0409 25.3129C23.305 25.0488 23.4371 24.547 23.4371 23.8076V15.489C23.4371 14.6967 23.3138 14.1157 23.0673 13.746C22.8385 13.3587 22.3983 13.165 21.7469 13.165V12.6105C22.3103 12.6633 22.8561 12.6897 23.3842 12.6897C24.1237 12.6897 24.8103 12.6633 25.4441 12.6105C26.0955 12.54 26.6941 12.4432 27.2399 12.32Z" fill="#141414"/>
<path d="M25.18 5.79712C25.9194 5.79712 26.5004 5.98198 26.923 6.35169C27.3631 6.7038 27.5832 7.19676 27.5832 7.83056C27.5832 8.46436 27.3631 8.96612 26.923 9.33583C26.5004 9.68794 25.9194 9.864 25.18 9.864C24.4406 9.864 23.8508 9.68794 23.4107 9.33583C22.9881 8.96612 22.7769 8.46436 22.7769 7.83056C22.7769 7.19676 22.9881 6.7038 23.4107 6.35169C23.8508 5.98198 24.4406 5.79712 25.18 5.79712Z" fill="url(#paint0_linear_374_4)"/>
<defs>
<linearGradient id="paint0_linear_374_4" x1="16.43" y1="5.79712" x2="16.43" y2="26.3164" gradientUnits="userSpaceOnUse">
<stop stop-color="#B6F829"/>
<stop offset="0.25" stop-color="#87E816"/>
<stop offset="0.5" stop-color="#85E716"/>
<stop offset="0.75" stop-color="#84E715"/>
<stop offset="1" stop-color="#67DD0A"/>
</linearGradient>
</defs>
</svg>
