<svg width="33" height="33" viewBox="0 0 33 33" fill="none" xmlns="http://www.w3.org/2000/svg">
<path fill-rule="evenodd" clip-rule="evenodd" d="M16.875 2.7998C9.14375 2.7998 2.875 9.22481 2.875 17.1561C2.875 23.4998 6.8875 28.8748 12.45 30.7748C13.15 30.9061 13.4062 30.4623 13.4062 30.0811C13.4062 29.7373 13.3937 28.8373 13.3875 27.6373C9.49375 28.5061 8.66875 25.7123 8.66875 25.7123C8.03125 24.0561 7.1125 23.6123 7.1125 23.6123C5.84375 22.7186 7.20625 22.7373 7.20625 22.7373C8.6125 22.8373 9.35 24.2186 9.35 24.2186C10.6 26.4123 12.625 25.7811 13.425 25.4123C13.55 24.4873 13.9125 23.8498 14.3125 23.4936C11.2062 23.1311 7.9375 21.8998 7.9375 16.3998C7.9375 14.8311 8.48125 13.5498 9.375 12.5498C9.23125 12.1873 8.75 10.7248 9.5125 8.7498C9.5125 8.7498 10.6875 8.3623 13.3625 10.2186C14.4813 9.8998 15.675 9.74355 16.8687 9.7373C18.0562 9.74355 19.2563 9.8998 20.375 10.2186C23.05 8.3623 24.2188 8.7498 24.2188 8.7498C24.9812 10.7248 24.5 12.1873 24.3563 12.5498C25.25 13.5561 25.7938 14.8373 25.7938 16.3998C25.7938 21.9123 22.5187 23.1248 19.4 23.4811C19.9 23.9248 20.35 24.7998 20.35 26.1373C20.35 28.0561 20.3312 29.6061 20.3312 30.0748C20.3312 30.4561 20.5813 30.9061 21.2938 30.7623C26.8688 28.8686 30.875 23.4936 30.875 17.1561C30.875 9.22481 24.6062 2.7998 16.875 2.7998Z" fill="url(#paint0_linear_412_696)"/>
<defs>
<linearGradient id="paint0_linear_412_696" x1="16.875" y1="2.7998" x2="16.875" y2="30.7983" gradientUnits="userSpaceOnUse">
<stop stop-color="#D376FF"/>
<stop offset="1" stop-color="#3C0667"/>
</linearGradient>
</defs>
</svg>
