<svg xmlns="http://www.w3.org/2000/svg" fill="none" viewBox="0 0 24 24" height="48" width="48"><path fill="#000000" d="M11.9962 1.28371C9.38562 1.28124 6.85951 2.2085 4.87051 3.8993C2.8815 5.59011 1.55961 7.93395 1.1417 10.5108C0.723797 13.0877 1.23719 15.7292 2.58989 17.9619C3.94259 20.1947 6.04618 21.8728 8.5237 22.6955C9.07204 22.791 9.2459 22.4691 9.2459 22.1787C9.2459 21.9159 9.25163 21.188 9.2459 20.2681C6.18899 20.9311 5.55754 18.8208 5.55754 18.8208C5.356 18.1569 4.92364 17.587 4.3386 17.214C3.34128 16.532 4.41311 16.5453 4.41311 16.5453C4.76132 16.5931 5.09399 16.7199 5.38572 16.9159C5.67744 17.1119 5.9205 17.3721 6.09632 17.6764C6.24505 17.9474 6.44604 18.1862 6.68766 18.3791C6.92928 18.5719 7.20674 18.7149 7.50399 18.7999C7.80123 18.8848 8.11237 18.9099 8.4194 18.8739C8.72642 18.8378 9.02325 18.7412 9.29271 18.5896C9.34339 18.0343 9.59069 17.5153 9.99006 17.1262C7.55122 16.8472 4.98628 15.9053 4.98628 11.6944C4.9708 10.6028 5.37617 9.5471 6.11829 8.74639C5.78201 7.79922 5.82029 6.75935 6.22529 5.83946C6.22529 5.83946 7.14905 5.54428 9.2459 6.9667C11.0468 6.47251 12.9475 6.47251 14.7483 6.9667C16.85 5.54523 17.7661 5.83946 17.7661 5.83946C18.1712 6.75922 18.2102 7.7989 17.875 8.74639C18.6173 9.54761 19.0221 10.6042 19.0051 11.6963C19.0051 15.9187 16.4363 16.8463 13.9889 17.1166C14.2518 17.3807 14.4549 17.6982 14.5846 18.0476C14.7143 18.397 14.7675 18.7701 14.7407 19.1418V22.1834C14.7407 22.4767 14.9184 22.8015 15.4763 22.6955C17.9544 21.8726 20.0584 20.1939 21.4111 17.9603C22.7637 15.7268 23.2766 13.0844 22.8577 10.5071C22.4388 7.92966 21.1155 5.58576 19.1251 3.89557C17.1347 2.20538 14.6074 1.27942 11.9962 1.28371V1.28371Z"></path></svg>