<svg width="33" height="33" viewBox="0 0 33 33" fill="none" xmlns="http://www.w3.org/2000/svg">
<path d="M4.08288 12.4156H9.70856V29.3451H4.08288V12.4156ZM6.93337 4.25488C5.00794 4.25488 3.75 5.51895 3.75 7.17807C3.75 8.80307 4.97112 10.1039 6.85975 10.1039H6.89563C8.85788 10.1039 10.0799 8.80301 10.0799 7.17807C10.0431 5.51895 8.85794 4.25488 6.93337 4.25488ZM23.5212 12.0179C20.535 12.0179 19.1972 13.6604 18.4509 14.8123V12.4156H12.8235C12.898 14.0038 12.8235 29.3451 12.8235 29.3451H18.4509V19.8905C18.4509 19.3841 18.4877 18.8796 18.6357 18.5169C19.0432 17.506 19.9691 16.4592 21.5221 16.4592C23.5598 16.4592 24.3735 18.0124 24.3735 20.2872V29.3451H30V19.6374C30 14.4374 27.2249 12.0179 23.5212 12.0179Z" fill="#717171"/>
</svg>
