<svg width="33" height="33" viewBox="0 0 33 33" fill="none" xmlns="http://www.w3.org/2000/svg">
<path fill-rule="evenodd" clip-rule="evenodd" d="M27.054 6.84698C24.4286 4.21865 20.9374 2.77057 17.2177 2.76904C9.55335 2.76904 3.31541 9.00648 3.31241 16.6732C3.31134 19.124 3.95165 21.5161 5.16853 23.6248L3.1958 30.8303L10.5672 28.8967C12.5981 30.0045 14.8849 30.5884 17.2121 30.5892H17.2178C17.2173 30.5892 17.2182 30.5892 17.2178 30.5892C24.8813 30.5892 31.1197 24.3511 31.1229 16.6843C31.1243 12.9688 29.6793 9.4752 27.054 6.84698ZM17.2177 28.2408H17.213C15.1393 28.24 13.1052 27.6828 11.3307 26.6298L10.9087 26.3794L6.53443 27.5268L7.70204 23.262L7.42721 22.8246C6.27033 20.9845 5.65931 18.8577 5.66022 16.6739C5.6627 10.3017 10.8475 5.11752 17.2224 5.11752C20.3093 5.11848 23.2112 6.32227 25.3933 8.50684C27.5753 10.6914 28.7763 13.5952 28.7751 16.6833C28.7725 23.056 23.5879 28.2408 17.2177 28.2408Z" fill="#717171"/>
<path fill-rule="evenodd" clip-rule="evenodd" d="M23.5571 19.585C23.2097 19.4111 21.5015 18.5707 21.183 18.4547C20.8646 18.3387 20.6329 18.2808 20.4013 18.6286C20.1697 18.9763 19.5039 19.759 19.3012 19.9909C19.0985 20.2227 18.8958 20.2519 18.5484 20.0778C18.201 19.9039 17.0815 19.537 15.7544 18.3534C14.7215 17.432 14.0242 16.2943 13.8215 15.9464C13.6189 15.5986 13.7999 15.4106 13.9739 15.2373C14.1302 15.0816 14.3214 14.8316 14.4951 14.6286C14.6688 14.4258 14.7267 14.2808 14.8425 14.0491C14.9583 13.8171 14.9005 13.6142 14.8136 13.4404C14.7267 13.2665 14.0319 11.5563 13.7424 10.8605C13.4602 10.1831 13.1738 10.2749 12.9605 10.2641C12.7582 10.254 12.5263 10.252 12.2947 10.252C12.0631 10.252 11.6866 10.3389 11.3682 10.6867C11.0497 11.0346 10.1521 11.8752 10.1521 13.5852C10.1521 15.2954 11.3971 16.9475 11.5708 17.1793C11.7445 17.4113 14.0208 20.9206 17.5061 22.4255C18.3351 22.7836 18.9823 22.9973 19.4868 23.1574C20.3191 23.4219 21.0766 23.3845 21.6752 23.2951C22.3428 23.1953 23.7309 22.4546 24.0204 21.6431C24.3099 20.8314 24.3099 20.1357 24.223 19.9909C24.1362 19.846 23.9045 19.759 23.5571 19.585Z" fill="#717171"/>
</svg>
